<svg xmlns="http://www.w3.org/2000/svg" viewBox="0 0 64 64"><defs><linearGradient id="c" x1="0" y1="0" x2="0" y2="1"><stop stop-color="#bac8d2"/><stop offset="1" stop-color="#637887"/></linearGradient></defs><path d="M14 35h36c7 0 12-5 12-11s-5-11-12-11c-2 0-4 .5-6 1.5C41 7 34 3 25 3 14 3 6 11 5 22c-3 2-4 5-4 7 0 4 5 6 13 6z" fill="url(#c)" stroke="#526776" stroke-width="3"/><g fill="none" stroke="#146fa8" stroke-width="4" stroke-linecap="round"><path d="M14 42L8 55M28 42l-6 13M42 42l-6 13M56 42l-6 13"/></g></svg>
