<svg xmlns="http://www.w3.org/2000/svg" viewBox="0 0 64 64"><defs><linearGradient id="m" x1="0" y1="0" x2="1" y2="1"><stop stop-color="#fff8c7"/><stop offset="1" stop-color="#f2c75c"/></linearGradient><linearGradient id="c" x1="0" y1="0" x2="0" y2="1"><stop stop-color="#eef5fb"/><stop offset="1" stop-color="#a8bac9"/></linearGradient></defs><path d="M36 5c-2 3-3 6-3 10 0 9 7 16 16 16-3 5-9 8-15 8-10 0-18-8-18-18 0-9 7-16 15-18 2 0 4 1 5 2z" fill="url(#m)" stroke="#dcae37" stroke-width="2.5"/><path d="M17 53h31c6 0 11-5 11-11 0-6-5-11-11-11-2 0-4 .5-5.5 1.5C40 26 34 22 27 22c-9 0-16 7-17 16-5 1-8 5-8 10 0 3 2 5 5 5z" fill="url(#c)" stroke="#8094a5" stroke-width="3" stroke-linejoin="round"/></svg>
