<svg xmlns="http://www.w3.org/2000/svg" viewBox="0 0 64 64"><defs><radialGradient id="s"><stop offset="0" stop-color="#fff7ad"/><stop offset="1" stop-color="#f5b400"/></radialGradient><linearGradient id="c" x1="0" y1="0" x2="0" y2="1"><stop stop-color="#eef5fb"/><stop offset="1" stop-color="#a8bac9"/></linearGradient></defs><g fill="none" stroke="#f5a000" stroke-width="3" stroke-linecap="round"><path d="M23 5v6M6 22h6M11 10l4 4M35 10l-4 4"/></g><circle cx="23" cy="22" r="11" fill="url(#s)" stroke="#f5a000" stroke-width="2.5"/><path d="M17 51h31c6 0 11-5 11-11 0-6-5-11-11-11-2 0-4 .5-5.5 1.5C40 24 34 20 27 20c-9 0-16 7-17 16-5 1-8 5-8 10 0 3 2 5 5 5z" fill="url(#c)" stroke="#8094a5" stroke-width="3" stroke-linejoin="round"/></svg>
