<svg xmlns="http://www.w3.org/2000/svg" viewBox="0 0 64 64"><defs><linearGradient id="c" x1="0" y1="0" x2="0" y2="1"><stop stop-color="#e9f1f6"/><stop offset="1" stop-color="#8fa3b2"/></linearGradient></defs><path d="M14 37h36c7 0 12-5 12-11s-5-11-12-11c-2 0-4 .5-6 1.5C41 9 34 5 25 5 14 5 6 13 5 24c-3 2-4 5-4 7 0 4 5 6 13 6z" fill="url(#c)" stroke="#6f8392" stroke-width="3"/><g stroke-linecap="round"><path d="M18 43l-5 10M46 43l-5 10" stroke="#268bd2" stroke-width="4"/><g stroke="#70b7e6" stroke-width="2.5"><path d="M31 43v13M25 49h12M27 45l8 8M35 45l-8 8"/></g></g></svg>
