<svg xmlns="http://www.w3.org/2000/svg" viewBox="0 0 64 64"><defs><linearGradient id="c" x1="0" y1="0" x2="0" y2="1"><stop stop-color="#f2f7fa"/><stop offset="1" stop-color="#a6b7c3"/></linearGradient></defs><path d="M14 35h36c7 0 12-5 12-11s-5-11-12-11c-2 0-4 .5-6 1.5C41 7 34 3 25 3 14 3 6 11 5 22c-3 2-4 5-4 7 0 4 5 6 13 6z" fill="url(#c)" stroke="#758998" stroke-width="3"/><g fill="none" stroke="#6db6e6" stroke-width="2.7" stroke-linecap="round"><g transform="translate(18 49)"><path d="M0-7V7M-6 0H6M-4-5l8 10M4-5l-8 10"/></g><g transform="translate(43 49)"><path d="M0-7V7M-6 0H6M-4-5l8 10M4-5l-8 10"/></g></g></svg>
