<svg xmlns="http://www.w3.org/2000/svg" viewBox="0 0 64 64"><defs><linearGradient id="c" x1="0" y1="0" x2="0" y2="1"><stop stop-color="#abb9c3"/><stop offset="1" stop-color="#536775"/></linearGradient><linearGradient id="l" x1="0" y1="0" x2="1" y2="1"><stop stop-color="#fff176"/><stop offset="1" stop-color="#f5a000"/></linearGradient></defs><path d="M14 35h36c7 0 12-5 12-11s-5-11-12-11c-2 0-4 .5-6 1.5C41 7 34 3 25 3 14 3 6 11 5 22c-3 2-4 5-4 7 0 4 5 6 13 6z" fill="url(#c)" stroke="#4c6170" stroke-width="3"/><path d="M34 37L23 51h9l-4 11 14-17h-9z" fill="url(#l)" stroke="#d48a00" stroke-width="2" stroke-linejoin="round"/><path d="M49 42l-5 10" stroke="#268bd2" stroke-width="4" stroke-linecap="round"/></svg>
