<svg xmlns="http://www.w3.org/2000/svg" viewBox="0 0 64 64"><defs><linearGradient id="c" x1="0" y1="0" x2="0" y2="1"><stop stop-color="#eef3f6"/><stop offset="1" stop-color="#9eafbc"/></linearGradient></defs><path d="M14 48h36c7 0 12-5 12-11s-5-11-12-11c-2 0-4 .5-6 1.5C41 20 34 16 25 16 14 16 6 24 5 35c-3 2-4 5-4 7 0 4 5 6 13 6z" fill="url(#c)" stroke="#758998" stroke-width="3"/><path d="M27 22c0-5 4-8 9-8 6 0 10 4 10 9 0 7-8 7-8 13" fill="none" stroke="#526776" stroke-width="4" stroke-linecap="round"/><circle cx="38" cy="43" r="2.5" fill="#526776"/></svg>
